<svg width="29" height="47" viewBox="0 0 29 47" fill="none" xmlns="http://www.w3.org/2000/svg">
<path d="M13.1676 19.2751C12.5671 20.0197 13.0007 20.9416 13.9015 20.7998C14.7689 20.6934 15.1359 19.5233 14.4353 19.0624C13.8348 18.6369 13.6346 18.6724 13.1676 19.2751Z" fill="#0136A3"/>
<path d="M10.2926 0.623182C4.84211 2.42756 1.07953 6.85006 0.200423 12.4047C-0.432534 16.3673 0.341081 19.1623 3.85751 25.283C4.52563 26.4506 5.43991 28.821 5.86188 30.5546C6.49484 32.9959 6.88164 33.8096 7.62009 34.3757C8.46404 35.0125 8.67502 35.0125 9.65963 34.6233C11.1365 34.0219 11.4178 33.3143 11.4178 30.4131V27.9011H17.7474V30.2008C17.7474 32.9251 18.2046 34.0926 19.5056 34.6233C21.3693 35.4017 22.5298 34.2342 23.1979 30.9438C23.7957 28.1134 24.71 25.9199 26.5385 23.1248C28.5429 20.0468 29 18.4193 29 14.5983C29 9.60969 27.3473 6.0717 23.6902 3.13516C20.1034 0.269382 14.4771 -0.792017 10.2926 0.623182ZM16.4112 5.25796C17.1145 5.25796 17.1145 5.29334 16.587 5.8948C16.2354 6.2486 15.9892 6.99158 15.9892 7.4869C15.9892 8.33602 15.9189 8.40677 15.3211 8.0176C14.7936 7.69918 14.442 7.69918 13.7035 8.0176C12.7892 8.44215 12.7541 8.44215 12.9651 7.59304C13.1057 7.06234 12.9651 6.6024 12.6486 6.31936C11.9101 5.68252 11.9805 5.3641 12.9651 5.11644C13.4574 5.0103 13.9497 4.55036 14.0903 4.1258C14.3013 3.34744 14.3365 3.38282 15.0046 4.3027C15.3914 4.8334 16.0244 5.25796 16.4112 5.25796ZM21.2639 5.43486C21.2639 5.7179 21.0177 5.96556 20.7364 5.96556C20.4551 5.96556 20.2089 5.7179 20.2089 5.43486C20.2089 5.15182 20.4551 4.90416 20.7364 4.90416C21.0177 4.90416 21.2639 5.15182 21.2639 5.43486ZM8.04207 6.14246C7.90141 6.4255 7.69042 6.67316 7.54977 6.67316C7.40911 6.67316 7.19812 6.4255 7.05747 6.14246C6.91681 5.78866 7.09263 5.61176 7.54977 5.61176C8.0069 5.61176 8.18272 5.78866 8.04207 6.14246ZM8.88601 10.4942C9.4838 10.8834 9.02667 11.9802 8.25305 11.9802C7.54977 11.9802 7.05747 10.6711 7.69042 10.4234C8.28822 10.1758 8.39371 10.2112 8.88601 10.4942ZM16.2705 12.6878C16.8683 13.7492 17.3958 14.7398 17.3958 14.8813C17.3958 15.0228 16.1299 15.1643 14.5826 15.1643H11.7695L12.1563 14.1737C12.7189 12.6878 14.3013 10.5296 14.7233 10.6711C14.9343 10.7419 15.6376 11.6617 16.2705 12.6878ZM23.1979 11.9094C23.0924 12.1924 23.0221 12.5109 23.0221 12.6878C23.0221 12.8293 22.6353 12.9354 22.1781 12.9354C21.1232 12.9354 20.6661 11.6971 21.51 11.0603C22.2485 10.565 23.4792 11.1664 23.1979 11.9094ZM6.14319 16.0488C6.14319 16.3319 5.89704 16.5795 5.61573 16.5795C5.33441 16.5795 5.08826 16.3319 5.08826 16.0488C5.08826 15.7658 5.33441 15.5181 5.61573 15.5181C5.89704 15.5181 6.14319 15.7658 6.14319 16.0488ZM23.3737 16.0488C23.3737 16.3319 23.1276 16.5795 22.8462 16.5795C22.5649 16.5795 22.3188 16.3319 22.3188 16.0488C22.3188 15.7658 22.5649 15.5181 22.8462 15.5181C23.1276 15.5181 23.3737 15.7658 23.3737 16.0488ZM17.7474 26.8397H11.4178V16.2257H17.7474V26.8397ZM10.3629 24.7523C10.3629 26.6275 10.2926 26.8751 9.72995 26.6982C9.27282 26.5567 8.88601 26.8751 8.25305 27.9011C7.76075 28.6795 7.26845 29.3163 7.12779 29.3163C6.95197 29.3163 6.84648 28.3611 6.84648 27.1935C6.84648 25.1061 6.84648 25.1061 8.46404 23.8324C9.37831 23.1602 10.1519 22.5941 10.2223 22.5941C10.2926 22.5941 10.3629 23.5494 10.3629 24.7523ZM22.2485 27.1228C22.3188 28.3257 22.2133 29.3163 22.0726 29.3163C21.8968 29.3163 21.4045 28.6795 20.9122 27.9011C20.2793 26.8751 19.8924 26.5567 19.4353 26.6982C18.8727 26.8751 18.8023 26.6275 18.8023 24.7169V22.5234L20.4902 23.7263C22.1078 24.9292 22.143 24.9646 22.2485 27.1228Z" fill="#0136A3"/>
<path d="M8.37325 37.1101C7.63931 37.642 7.57258 38.5993 8.23981 39.3085C8.8403 39.9467 9.37408 40.0176 14.7118 40.0176C21.0838 40.0176 22.2514 39.7694 22.2514 38.493C22.2514 36.9328 21.8177 36.8265 15.0788 36.8265C11.6093 36.8265 8.57341 36.9683 8.37325 37.1101Z" fill="#0136A3"/>
<path d="M10.7753 41.8615C10.1414 42.7833 10.4083 43.3507 12.2432 45.0881C13.3774 46.1872 13.8111 46.4 15.1122 46.4C16.4467 46.4 16.7803 46.2227 18.0813 44.8399C19.6827 43.1734 19.9829 42.0387 18.9487 41.436C18.5818 41.2587 16.7135 41.0814 14.7786 41.0814C11.5759 41.0814 11.2423 41.1523 10.7753 41.8615Z" fill="#0136A3"/>
</svg>
