<svg width="41" height="39" viewBox="0 0 41 39" fill="none" xmlns="http://www.w3.org/2000/svg">
<path d="M36.6338 8.78403L30.634 8.74241L30.6617 4.74251C30.6771 2.52256 28.9095 0.730255 26.6896 0.714854L14.6898 0.631607C12.4699 0.616206 10.6776 2.38381 10.6622 4.60376L10.6344 8.60366L4.63459 8.56204C2.41464 8.54664 0.622339 10.3142 0.606938 12.5342L0.454318 34.5337C0.438917 36.7536 2.20653 38.5459 4.42647 38.5613L36.4257 38.7833C38.6456 38.7987 40.438 37.0311 40.4534 34.8112L40.606 12.8117C40.6214 10.5917 38.8538 8.79943 36.6338 8.78403ZM14.6621 4.63151L26.6618 4.71476L26.6341 8.71466L14.6344 8.63141L14.6621 4.63151ZM36.4535 34.7834L4.45422 34.5614L4.48197 30.5615L36.4812 30.7835L36.4535 34.7834ZM36.5228 24.7836L4.52359 24.5617L4.60684 12.5619L10.6067 12.6036L10.5789 16.6035L14.5789 16.6312L14.6066 12.6313L26.6063 12.7146L26.5786 16.7145L30.5785 16.7422L30.6062 12.7423L36.6061 12.7839L36.5228 24.7836Z" fill="black"/>
</svg>
