<svg width="1440" height="242" viewBox="0 0 1440 242" fill="none" xmlns="http://www.w3.org/2000/svg">
<path fill-rule="evenodd" clip-rule="evenodd" d="M0 40.1364L60 28.9218C120 17.7071 240 -4.72216 360 0.885163C480 6.49249 600 40.1364 720 56.9584C840 73.7804 960 73.7804 1080 62.5657C1200 51.3511 1320 28.9218 1380 17.7071L1440 6.49249V242H1380C1320 242 1200 242 1080 242C960 242 840 242 720 242C600 242 480 242 360 242C240 242 120 242 60 242H0V40.1364Z" fill="url(#paint0_linear_83_387)"/>
<defs>
<linearGradient id="paint0_linear_83_387" x1="720" y1="0" x2="720" y2="242" gradientUnits="userSpaceOnUse">
<stop stop-color="#0053FF"/>
<stop offset="1" stop-color="#001D58"/>
</linearGradient>
</defs>
</svg>
