<svg width="268" height="302" viewBox="0 0 268 302" fill="none" xmlns="http://www.w3.org/2000/svg">
<path d="M102.751 184.958C104.274 187.906 103.987 191.081 102.111 192.05C100.235 193.019 97.4796 191.415 95.9567 188.467C95.29 187.177 94.9701 185.843 94.9784 184.669L88.6819 172.097L94.6451 169.268L100.219 181.962C101.181 182.635 102.084 183.667 102.751 184.958Z" fill="#FFB6B6"/>
<path d="M55.8933 298.394L61.2618 298.394L63.8157 277.688L55.8922 277.689L55.8933 298.394Z" fill="#FFB6B6"/>
<path d="M74.2866 298.272C74.4537 298.554 74.5419 299.462 74.5419 299.79C74.5419 300.796 73.7262 301.612 72.7199 301.612H56.0941C55.4076 301.612 54.851 301.055 54.851 300.369V299.677C54.851 299.677 54.0286 297.596 55.7219 295.033C55.7219 295.033 57.8265 297.04 60.9712 293.896L61.8985 292.216L68.6113 297.125L72.3321 297.583C73.1461 297.683 73.8679 297.567 74.2866 298.272Z" fill="#2F2E41"/>
<path d="M30.7071 298.394L36.0757 298.394L38.6295 277.688L30.706 277.689L30.7071 298.394Z" fill="#FFB6B6"/>
<path d="M49.1004 298.272C49.2676 298.554 49.3558 299.462 49.3558 299.79C49.3558 300.796 48.54 301.612 47.5337 301.612H30.9079C30.2214 301.612 29.6649 301.055 29.6649 300.369V299.677C29.6649 299.677 28.8424 297.596 30.5357 295.033C30.5357 295.033 32.6403 297.04 35.785 293.896L36.7124 292.216L43.4252 297.125L47.146 297.583C47.96 297.683 48.6817 297.567 49.1004 298.272Z" fill="#2F2E41"/>
<path d="M23.108 176.227L20.8464 190.047L27.8826 234.773L29.6416 288.796H39.1413L43.9653 237.788L43.4627 204.118L54.7709 289.299H64.6425L65.5764 182.509L23.108 176.227Z" fill="#2F2E41"/>
<path d="M34.9188 104.615H52.7032L68.0894 113.661C65.6947 113.052 63.8447 135.267 63.7818 154.896C63.7776 156.2 62.485 157.7 62.497 158.974C62.5073 160.071 63.82 160.948 63.8428 162.013C63.8641 163.008 63.891 163.987 63.9236 164.946C63.9507 165.742 62.4618 166.796 62.497 167.561C62.5418 168.539 64.1131 169.218 64.1715 170.139C64.5302 175.797 65.1485 180.28 66.079 182.509C66.079 182.509 26.3748 193.565 23.3593 176.478C23.3593 176.478 23.5315 170.337 23.5073 161.856C23.5052 161.104 22.8643 160.421 22.8588 159.634C22.8547 159.049 23.4869 158.368 23.4807 157.766C23.4756 157.272 22.8655 156.835 22.8588 156.331C22.8549 156.031 23.4549 155.667 23.4504 155.363C23.2093 139.236 22.1264 118.912 18.3335 113.661L34.9188 104.615Z" fill="#0136A3"/>
<path d="M52.5092 104.615C52.5092 104.615 64.0332 108.802 67.6899 112.138C69.633 113.911 82.6643 147.331 82.6643 147.331L100.764 178.85L91.3559 182.423L72.1101 153.361L63.5661 134.265L52.5092 104.615Z" fill="#0136A3"/>
<path d="M28.6064 186.15C30.2872 189.011 30.1737 192.198 28.353 193.267C26.5323 194.337 23.6938 192.884 22.013 190.023C21.2772 188.771 20.8854 187.457 20.8299 186.284L13.86 174.073L19.6608 170.924L25.9161 183.297C26.913 183.916 27.8706 184.898 28.6064 186.15Z" fill="#FFB6B6"/>
<path d="M32.4058 120.194L27.38 108.635C27.38 108.635 15.5692 112.404 15.5692 117.932C15.5692 117.932 8.53306 160.146 9.53823 170.699L16.0718 182.257L25.3697 174.971L19.5899 161.653L32.4058 120.194Z" fill="#0136A3"/>
<path d="M22.0697 195.286L27.998 183.514L34.9188 193.062L28.6901 199.093L22.0697 195.286Z" fill="#2F2E41"/>
<path d="M43.6434 101.294C49.9958 101.294 55.1454 96.1453 55.1454 89.7934C55.1454 83.4416 49.9958 78.2924 43.6434 78.2924C37.291 78.2924 32.1413 83.4416 32.1413 89.7934C32.1413 96.1453 37.291 101.294 43.6434 101.294Z" fill="#FFB6B6"/>
<path d="M52.6125 76.9458C50.6137 76.3057 49.6679 73.9283 47.8396 72.8978C45.8176 71.7582 43.3987 71.0467 41.1689 71.6915C39.8008 72.0872 38.6089 72.9617 37.2399 73.354C37.0006 73.4226 36.7488 73.4699 36.4932 73.4942C35.0208 73.6345 33.7568 74.5174 33.0209 75.8003L33.0017 75.8334C32.5698 76.5726 31.9557 77.1848 31.4108 77.845C29.4222 80.2545 28.3459 83.386 28.3681 86.5099C28.3919 89.868 29.6841 93.2019 31.9296 95.699L32.5032 95.4345C33.8895 96.6318 35.2757 97.8292 36.662 99.0265C35.9076 96.3046 35.1461 93.4874 35.5455 90.6914C35.9449 87.8953 37.8254 85.1057 40.598 84.5658C41.6469 84.3617 42.7531 84.4851 43.7713 84.1609C44.7895 83.8367 45.7273 82.79 45.378 81.7802C46.0084 83.4468 48.36 83.3484 49.9786 84.094C53.6011 85.7629 52.275 83.1838 55.4197 85.6371C56.4818 79.7508 60.5506 79.488 52.6125 76.9458Z" fill="#2F2E41"/>
<path d="M0 301.214C0 301.65 0.350157 302 0.786196 302H267.214C267.65 302 268 301.65 268 301.214C268 300.778 267.65 300.428 267.214 300.428H0.786196C0.350157 300.428 0 300.778 0 301.214Z" fill="#CCCCCC"/>
<path d="M232.36 302H115.807C101.596 302 90.0338 290.439 90.0338 276.228V25.7713C90.0338 11.561 101.596 0 115.807 0H232.36C246.571 0 258.133 11.561 258.133 25.7713V276.228C258.133 290.439 246.571 302 232.36 302Z" fill="#3F3D56"/>
<path d="M258.133 92.1264C257.532 92.1264 257.043 92.6153 257.043 93.2166V128.105C257.043 128.706 257.532 129.195 258.133 129.195C258.735 129.195 259.224 128.706 259.224 128.105V93.2166C259.224 92.6153 258.735 92.1264 258.133 92.1264Z" fill="#3F3D56"/>
<path d="M255.68 25.7715V276.224C255.68 288.593 246.052 298.711 233.879 299.496H233.873C233.693 299.507 233.513 299.517 233.328 299.523C233.006 299.539 232.685 299.545 232.358 299.545C232.358 299.545 231.158 299.457 228.967 299.294C226.753 299.13 223.531 298.885 219.513 298.563C218.308 298.471 217.038 298.367 215.697 298.258C213.026 298.04 210.093 297.8 206.947 297.528C205.693 297.424 204.396 297.31 203.071 297.195C196.3 296.612 188.716 295.93 180.719 295.156C179.367 295.031 178.004 294.9 176.63 294.764C176.27 294.726 175.905 294.693 175.54 294.655C169.837 294.093 92.4873 279.146 92.4873 276.224V25.7715C92.4873 12.8902 102.927 2.45102 115.81 2.45102H129.734C131.958 2.45102 133.746 4.18452 133.937 6.40319C133.953 6.55039 133.97 6.69754 133.997 6.84474C134.4 9.07432 136.445 10.6279 138.713 10.6279H209.455C211.723 10.6279 213.767 9.07432 214.171 6.84474C214.198 6.69754 214.214 6.55039 214.231 6.40319C214.421 4.18452 216.209 2.45102 218.434 2.45102H232.358C245.24 2.45102 255.68 12.8902 255.68 25.7715Z" fill="white"/>
<path d="M89.4887 65.9603C88.8874 65.9603 88.3984 66.4493 88.3984 67.0506V75.7726C88.3984 76.3739 88.8874 76.8628 89.4887 76.8628C90.09 76.8628 90.5791 76.3739 90.5791 75.7726V67.0506C90.5791 66.4493 90.09 65.9603 89.4887 65.9603Z" fill="#3F3D56"/>
<path d="M89.4887 92.1264C88.8874 92.1264 88.3984 92.6153 88.3984 93.2166V110.116C88.3984 110.717 88.8874 111.206 89.4887 111.206C90.09 111.206 90.5791 110.717 90.5791 110.116V93.2166C90.5791 92.6153 90.09 92.1264 89.4887 92.1264Z" fill="#3F3D56"/>
<path d="M89.4887 116.112C88.8874 116.112 88.3984 116.601 88.3984 117.202V134.101C88.3984 134.702 88.8874 135.191 89.4887 135.191C90.09 135.191 90.5791 134.702 90.5791 134.101V117.202C90.5791 116.601 90.09 116.112 89.4887 116.112Z" fill="#3F3D56"/>
<path d="M129.354 6.26903H108.502C108.389 6.26903 108.297 6.36078 108.297 6.47395V8.78975C108.297 8.90292 108.389 8.99467 108.502 8.99467H129.354C129.467 8.99467 129.559 8.90292 129.559 8.78975V6.47395C129.559 6.36078 129.467 6.26903 129.354 6.26903Z" fill="#E6E6E6"/>
<path d="M221.879 8.99467C223.084 8.99467 224.06 8.01842 224.06 6.81416C224.06 5.6099 223.084 4.63366 221.879 4.63366C220.675 4.63366 219.698 5.6099 219.698 6.81416C219.698 8.01842 220.675 8.99467 221.879 8.99467Z" fill="#E6E6E6"/>
<path d="M227.876 8.99467C229.08 8.99467 230.057 8.01842 230.057 6.81416C230.057 5.6099 229.08 4.63366 227.876 4.63366C226.672 4.63366 225.695 5.6099 225.695 6.81416C225.695 8.01842 226.672 8.99467 227.876 8.99467Z" fill="#E6E6E6"/>
<path d="M233.873 8.99467C235.077 8.99467 236.054 8.01842 236.054 6.81416C236.054 5.6099 235.077 4.63366 233.873 4.63366C232.669 4.63366 231.692 5.6099 231.692 6.81416C231.692 8.01842 232.669 8.99467 233.873 8.99467Z" fill="#E6E6E6"/>
<path d="M220.328 62.8598H127.839C126.382 62.8598 125.197 61.6744 125.197 60.2175C125.197 58.7606 126.382 57.5752 127.839 57.5752H220.328C221.785 57.5752 222.971 58.7606 222.971 60.2175C222.971 61.6744 221.785 62.8598 220.328 62.8598Z" fill="#E6E6E6"/>
<path d="M235.88 271.932H201.527C200.07 271.932 198.884 270.747 198.884 269.29C198.884 267.833 200.07 266.648 201.527 266.648H235.88C237.337 266.648 238.522 267.833 238.522 269.29C238.522 270.747 237.337 271.932 235.88 271.932Z" fill="#E6E6E6"/>
<path d="M144.051 271.932H109.698C108.241 271.932 107.056 270.747 107.056 269.29C107.056 267.833 108.241 266.648 109.698 266.648H144.051C145.508 266.648 146.694 267.833 146.694 269.29C146.694 270.747 145.508 271.932 144.051 271.932Z" fill="#E6E6E6"/>
<path d="M238.522 69.9597H109.645V70.6203H238.522V69.9597Z" fill="#3F3D56"/>
<path d="M220.328 103.155H127.839C126.382 103.155 125.197 101.97 125.197 100.513C125.197 99.0557 126.382 97.8704 127.839 97.8704H220.328C221.785 97.8704 222.971 99.0557 222.971 100.513C222.971 101.97 221.785 103.155 220.328 103.155Z" fill="#E6E6E6"/>
<path d="M238.522 110.255H109.645V110.915H238.522V110.255Z" fill="#3F3D56"/>
<path d="M220.328 143.45H127.839C126.382 143.45 125.197 142.265 125.197 140.808C125.197 139.351 126.382 138.166 127.839 138.166H220.328C221.785 138.166 222.971 139.351 222.971 140.808C222.971 142.265 221.785 143.45 220.328 143.45Z" fill="#E6E6E6"/>
<path d="M238.522 150.55H109.645V151.211H238.522V150.55Z" fill="#3F3D56"/>
<path d="M238.522 184.9H109.645V185.561H238.522V184.9Z" fill="#3F3D56"/>
<path d="M238.522 219.25H109.645V219.911H238.522V219.25Z" fill="#3F3D56"/>
<path d="M174.991 243.413C196.152 243.413 213.307 226.26 213.307 205.1C213.307 183.94 196.152 166.786 174.991 166.786C153.829 166.786 136.674 183.94 136.674 205.1C136.674 226.26 153.829 243.413 174.991 243.413Z" fill="#0136A3"/>
</svg>
